<svg width="21" height="21" viewBox="0 0 21 21" fill="none" xmlns="http://www.w3.org/2000/svg">
<path d="M2.3335 18.8334H19.0002" stroke="#060922" stroke-width="1.5" stroke-miterlimit="10" stroke-linecap="round" stroke-linejoin="round"/>
<path d="M13.1751 18.825L3.17509 18.8417L3.16675 6.39167C3.16675 5.83334 3.45009 5.31664 3.90843 5.00831L7.24176 2.78333C7.80009 2.40833 8.5334 2.40833 9.09174 2.78333L12.4251 5.00831C12.8917 5.31664 13.1667 5.83334 13.1667 6.39167L13.1751 18.825Z" stroke="#060922" stroke-width="1.5" stroke-miterlimit="10" stroke-linecap="round" stroke-linejoin="round"/>
<path d="M17.3167 18.8417V15.5" stroke="#060922" stroke-width="1.5" stroke-miterlimit="10" stroke-linecap="round" stroke-linejoin="round"/>
<path d="M17.3334 10.5C16.4167 10.5 15.6667 11.25 15.6667 12.1667V13.8333C15.6667 14.75 16.4167 15.5 17.3334 15.5C18.2501 15.5 19.0001 14.75 19.0001 13.8333V12.1667C19.0001 11.25 18.2501 10.5 17.3334 10.5Z" stroke="#060922" stroke-width="1.5" stroke-miterlimit="10" stroke-linecap="round" stroke-linejoin="round"/>
<path d="M3.16675 12.1666H13.1667" stroke="#060922" stroke-width="1.5" stroke-miterlimit="10" stroke-linecap="round" stroke-linejoin="round"/>
<path d="M8.16675 18.8334V15.7084" stroke="#060922" stroke-width="1.5" stroke-miterlimit="10" stroke-linecap="round" stroke-linejoin="round"/>
<path d="M8.16675 9.25C8.8571 9.25 9.41675 8.69036 9.41675 8C9.41675 7.30964 8.8571 6.75 8.16675 6.75C7.47639 6.75 6.91675 7.30964 6.91675 8C6.91675 8.69036 7.47639 9.25 8.16675 9.25Z" stroke="#060922" stroke-width="1.5" stroke-miterlimit="10" stroke-linecap="round" stroke-linejoin="round"/>
</svg>
