<svg width="32" height="32" viewBox="0 0 32 32" fill="none" xmlns="http://www.w3.org/2000/svg">
<path d="M17.3333 29.3333H6.66666C3.99999 29.3333 2.66666 28 2.66666 25.3333V14.6667C2.66666 12 3.99999 10.6667 6.66666 10.6667H13.3333V25.3333C13.3333 28 14.6667 29.3333 17.3333 29.3333Z" stroke="#3F52FF" stroke-width="2" stroke-miterlimit="10" stroke-linecap="round" stroke-linejoin="round"/>
<path d="M13.48 5.33334C13.3733 5.73334 13.3333 6.17334 13.3333 6.66668V10.6667H6.66666V8.00001C6.66666 6.53334 7.86666 5.33334 9.33332 5.33334H13.48Z" stroke="#3F52FF" stroke-width="2" stroke-miterlimit="10" stroke-linecap="round" stroke-linejoin="round"/>
<path d="M18.6667 10.6667V17.3333" stroke="#3F52FF" stroke-width="2" stroke-miterlimit="10" stroke-linecap="round" stroke-linejoin="round"/>
<path d="M24 10.6667V17.3333" stroke="#3F52FF" stroke-width="2" stroke-miterlimit="10" stroke-linecap="round" stroke-linejoin="round"/>
<path d="M22.6667 22.6667H20C19.2667 22.6667 18.6667 23.2667 18.6667 24V29.3333H24V24C24 23.2667 23.4 22.6667 22.6667 22.6667Z" stroke="#3F52FF" stroke-width="2" stroke-miterlimit="10" stroke-linecap="round" stroke-linejoin="round"/>
<path d="M8 17.3333V22.6667" stroke="#3F52FF" stroke-width="2" stroke-miterlimit="10" stroke-linecap="round" stroke-linejoin="round"/>
<path d="M13.3333 25.3333V6.66666C13.3333 3.99999 14.6667 2.66666 17.3333 2.66666H25.3333C28 2.66666 29.3333 3.99999 29.3333 6.66666V25.3333C29.3333 28 28 29.3333 25.3333 29.3333H17.3333C14.6667 29.3333 13.3333 28 13.3333 25.3333Z" stroke="#3F52FF" stroke-width="2" stroke-miterlimit="10" stroke-linecap="round" stroke-linejoin="round"/>
</svg>
