<svg width="32" height="32" viewBox="0 0 32 32" fill="none" xmlns="http://www.w3.org/2000/svg">
<path d="M2.66669 16.8133H25.3334" stroke="#3E9D4C" stroke-width="2" stroke-miterlimit="10" stroke-linecap="round" stroke-linejoin="round"/>
<path d="M25.3334 13.7067V23.24C25.2934 27.04 24.2533 28 20.2933 28H7.70673C3.68006 28 2.66669 27 2.66669 23.0267V13.7067C2.66669 10.1067 3.50669 8.94667 6.66669 8.76C6.98669 8.74667 7.33339 8.73334 7.70673 8.73334H20.2933C24.32 8.73334 25.3334 9.73334 25.3334 13.7067Z" stroke="#3E9D4C" stroke-width="2" stroke-linecap="round" stroke-linejoin="round"/>
<path d="M29.3334 8.97333V18.2933C29.3334 21.8933 28.4934 23.0533 25.3334 23.24V13.7067C25.3334 9.73333 24.32 8.73333 20.2933 8.73333H7.70673C7.33339 8.73333 6.98669 8.74667 6.66669 8.76C6.70669 4.96 7.74673 4 11.7067 4H24.2933C28.32 4 29.3334 5 29.3334 8.97333Z" stroke="#3E9D4C" stroke-width="2" stroke-linecap="round" stroke-linejoin="round"/>
<path d="M7 23.7467H9.29329" stroke="#3E9D4C" stroke-width="2" stroke-miterlimit="10" stroke-linecap="round" stroke-linejoin="round"/>
<path d="M12.1467 23.7467H16.7333" stroke="#3E9D4C" stroke-width="2" stroke-miterlimit="10" stroke-linecap="round" stroke-linejoin="round"/>
</svg>
