<svg width="60" height="60" viewBox="0 0 60 60" fill="none" xmlns="http://www.w3.org/2000/svg">
<rect width="60" height="60" rx="30" fill="#3F52FF"/>
<path d="M36.6667 43.3334H23.3334C22.7867 43.3334 22.3334 42.88 22.3334 42.3334C22.3334 41.7867 22.7867 41.3334 23.3334 41.3334H36.6667C37.2134 41.3334 37.6667 41.7867 37.6667 42.3334C37.6667 42.88 37.2134 43.3334 36.6667 43.3334Z" fill="white"/>
<path d="M41.1334 21.36L35.8 25.1733C35.0934 25.68 34.08 25.3733 33.7734 24.56L31.2534 17.84C30.8267 16.68 29.1867 16.68 28.76 17.84L26.2267 24.5466C25.92 25.3733 24.92 25.68 24.2134 25.16L18.88 21.3466C17.8134 20.6 16.4 21.6533 16.84 22.8933L22.3867 38.4266C22.5734 38.96 23.08 39.3066 23.64 39.3066H36.3467C36.9067 39.3066 37.4134 38.9466 37.6 38.4266L43.1467 22.8933C43.6 21.6533 42.1867 20.6 41.1334 21.36ZM33.3334 33.6666H26.6667C26.12 33.6666 25.6667 33.2133 25.6667 32.6666C25.6667 32.12 26.12 31.6666 26.6667 31.6666H33.3334C33.88 31.6666 34.3334 32.12 34.3334 32.6666C34.3334 33.2133 33.88 33.6666 33.3334 33.6666Z" fill="white"/>
</svg>
