<svg width="81" height="81" viewBox="0 0 81 81" fill="none" xmlns="http://www.w3.org/2000/svg">
<rect x="0.5" y="0.5" width="80" height="80" rx="40" fill="#CEF27F"/>
<path d="M48.8332 57.1667H32.1665C31.4832 57.1667 30.9165 56.6 30.9165 55.9167C30.9165 55.2334 31.4832 54.6667 32.1665 54.6667H48.8332C49.5165 54.6667 50.0832 55.2334 50.0832 55.9167C50.0832 56.6 49.5165 57.1667 48.8332 57.1667Z" fill="#060922"/>
<path d="M54.4165 29.7L47.7499 34.4667C46.8665 35.1 45.5999 34.7167 45.2165 33.7L42.0665 25.3C41.5332 23.85 39.4832 23.85 38.9499 25.3L35.7832 33.6834C35.3999 34.7167 34.1499 35.1 33.2665 34.45L26.5999 29.6834C25.2665 28.75 23.4999 30.0667 24.0499 31.6167L30.9832 51.0334C31.2165 51.7 31.8499 52.1334 32.5499 52.1334H48.4332C49.1332 52.1334 49.7665 51.6834 49.9999 51.0334L56.9332 31.6167C57.4999 30.0667 55.7332 28.75 54.4165 29.7ZM44.6665 45.0834H36.3332C35.6499 45.0834 35.0832 44.5167 35.0832 43.8334C35.0832 43.15 35.6499 42.5834 36.3332 42.5834H44.6665C45.3499 42.5834 45.9165 43.15 45.9165 43.8334C45.9165 44.5167 45.3499 45.0834 44.6665 45.0834Z" fill="#060922"/>
</svg>
