<svg width="101" height="101" viewBox="0 0 101 101" fill="none" xmlns="http://www.w3.org/2000/svg">
<mask id="mask0_267_48246" style="mask-type:alpha" maskUnits="userSpaceOnUse" x="0" y="0" width="101" height="101">
<rect x="0.5" y="0.5" width="100" height="100" rx="50" fill="#D9D9D9"/>
</mask>
<g mask="url(#mask0_267_48246)">
<rect x="0.5" y="1" width="100" height="100" fill="#165DFF" fill-opacity="0.09"/>
<path d="M51 61C61.3553 61 69.75 52.6053 69.75 42.25C69.75 31.8947 61.3553 23.5 51 23.5C40.6447 23.5 32.25 31.8947 32.25 42.25C32.25 52.6053 40.6447 61 51 61Z" fill="#165DFF"/>
<path d="M51 70.375C32.2125 70.375 16.9125 82.975 16.9125 98.5C16.9125 99.55 17.7375 100.375 18.7875 100.375H83.2125C84.2625 100.375 85.0875 99.55 85.0875 98.5C85.0875 82.975 69.7875 70.375 51 70.375Z" fill="#165DFF"/>
</g>
</svg>
