<svg width="20" height="21" viewBox="0 0 20 21" fill="none" xmlns="http://www.w3.org/2000/svg">
<path d="M6.66663 2.16666V4.66666" stroke="#060922" stroke-width="1.5" stroke-miterlimit="10" stroke-linecap="round" stroke-linejoin="round"/>
<path d="M13.3334 2.16666V4.66666" stroke="#060922" stroke-width="1.5" stroke-miterlimit="10" stroke-linecap="round" stroke-linejoin="round"/>
<path d="M17.5 7.58332V11.8583C16.7583 11.2667 15.8167 10.9167 14.7917 10.9167C13.7667 10.9167 12.8083 11.275 12.0583 11.8833C11.05 12.675 10.4167 13.9167 10.4167 15.2917C10.4167 16.1083 10.65 16.8917 11.05 17.5417C11.3583 18.05 11.7583 18.4917 12.2333 18.8333H6.66667C3.75 18.8333 2.5 17.1667 2.5 14.6667V7.58332C2.5 5.08332 3.75 3.41666 6.66667 3.41666H13.3333C16.25 3.41666 17.5 5.08332 17.5 7.58332Z" stroke="#060922" stroke-width="1.5" stroke-miterlimit="10" stroke-linecap="round" stroke-linejoin="round"/>
<path d="M5.83337 9.66666H10.8334" stroke="#060922" stroke-width="1.5" stroke-miterlimit="10" stroke-linecap="round" stroke-linejoin="round"/>
<path d="M5.83337 13.8333H8.0167" stroke="#060922" stroke-width="1.5" stroke-miterlimit="10" stroke-linecap="round" stroke-linejoin="round"/>
<path d="M19.1666 15.2917C19.1666 16.1083 18.9333 16.8917 18.5333 17.5417C18.3 17.9417 18.0083 18.2917 17.6666 18.575C16.9 19.2583 15.9 19.6667 14.7916 19.6667C13.8333 19.6667 12.95 19.3583 12.2333 18.8333C11.7583 18.4917 11.3583 18.05 11.05 17.5417C10.65 16.8917 10.4166 16.1083 10.4166 15.2917C10.4166 13.9167 11.05 12.675 12.0583 11.8833C12.8083 11.275 13.7666 10.9167 14.7916 10.9167C15.8166 10.9167 16.7583 11.2667 17.5 11.8583C18.5166 12.6583 19.1666 13.9 19.1666 15.2917Z" stroke="#060922" stroke-width="1.5" stroke-miterlimit="10" stroke-linecap="round" stroke-linejoin="round"/>
<path d="M14.7917 17.375C14.7917 16.225 15.725 15.2917 16.875 15.2917C15.725 15.2917 14.7917 14.3583 14.7917 13.2083C14.7917 14.3583 13.8584 15.2917 12.7084 15.2917C13.8584 15.2917 14.7917 16.225 14.7917 17.375Z" stroke="#060922" stroke-width="1.5" stroke-linecap="round" stroke-linejoin="round"/>
</svg>
