<svg width="25" height="24" viewBox="0 0 25 24" fill="none" xmlns="http://www.w3.org/2000/svg">
<path d="M21.41 11.12V6.73001C21.41 5.91001 20.79 4.98001 20.02 4.67001L14.45 2.39001C13.2 1.88001 11.79 1.88001 10.54 2.39001L4.97 4.67001C4.21 4.98001 3.59 5.91001 3.59 6.73001V11.12C3.59 16.01 7.14 20.59 11.99 21.93C12.32 22.02 12.68 22.02 13.01 21.93C17.86 20.59 21.41 16.01 21.41 11.12ZM13.25 12.87V15.5C13.25 15.91 12.91 16.25 12.5 16.25C12.09 16.25 11.75 15.91 11.75 15.5V12.87C10.74 12.55 10 11.61 10 10.5C10 9.12001 11.12 8.00001 12.5 8.00001C13.88 8.00001 15 9.12001 15 10.5C15 11.62 14.26 12.55 13.25 12.87Z" fill="#3F52FF"/>
</svg>
