<svg width="21" height="21" viewBox="0 0 21 21" fill="none" xmlns="http://www.w3.org/2000/svg">
<path d="M15.3334 6.33332V14.6667C15.3334 15.1833 15.3167 15.6417 15.2584 16.05C15.0167 18.2417 13.9834 18.8333 11.1667 18.8333H9.50004C6.68337 18.8333 5.65004 18.2417 5.40837 16.05C5.35004 15.6417 5.33337 15.1833 5.33337 14.6667V6.33332C5.33337 5.81666 5.35004 5.35832 5.40837 4.94999C5.65004 2.75832 6.68337 2.16666 9.50004 2.16666H11.1667C13.9834 2.16666 15.0167 2.75832 15.2584 4.94999C15.3167 5.35832 15.3334 5.81666 15.3334 6.33332Z" stroke="#060922" stroke-width="1.5" stroke-linecap="round" stroke-linejoin="round"/>
<path d="M5.33333 14.6667C5.33333 15.1833 5.35 15.6417 5.40833 16.05C5.29167 16.0583 5.18333 16.0583 5.05833 16.0583H4.775C2.55833 16.0583 2 15.5 2 13.275V7.72501C2 5.50001 2.55833 4.94168 4.775 4.94168H5.05833C5.18333 4.94168 5.29167 4.94168 5.40833 4.95001C5.35 5.35835 5.33333 5.81668 5.33333 6.33335V14.6667Z" stroke="#060922" stroke-width="1.5" stroke-linecap="round" stroke-linejoin="round"/>
<path d="M18.6668 7.72501V13.275C18.6668 15.5 18.1084 16.0583 15.8918 16.0583H15.6084C15.4834 16.0583 15.3751 16.0583 15.2584 16.05C15.3168 15.6417 15.3334 15.1833 15.3334 14.6667V6.33335C15.3334 5.81668 15.3168 5.35835 15.2584 4.95001C15.3751 4.94168 15.4834 4.94168 15.6084 4.94168H15.8918C18.1084 4.94168 18.6668 5.50001 18.6668 7.72501Z" stroke="#060922" stroke-width="1.5" stroke-linecap="round" stroke-linejoin="round"/>
</svg>
