<svg width="20" height="21" viewBox="0 0 20 21" fill="none" xmlns="http://www.w3.org/2000/svg">
<path d="M5.83329 5.5H14.1666C14.6833 5.5 15.1416 5.51667 15.55 5.575C17.7416 5.81667 18.3333 6.85 18.3333 9.66667V11.3333C18.3333 14.15 17.7416 15.1833 15.55 15.425C15.1416 15.4833 14.6833 15.5 14.1666 15.5H5.83329C5.31663 15.5 4.85829 15.4833 4.44996 15.425C2.25829 15.1833 1.66663 14.15 1.66663 11.3333V9.66667C1.66663 6.85 2.25829 5.81667 4.44996 5.575C4.85829 5.51667 5.31663 5.5 5.83329 5.5Z" stroke="#060922" stroke-width="1.5" stroke-linecap="round" stroke-linejoin="round"/>
<path d="M14.1667 15.5C14.6833 15.5 15.1417 15.4833 15.55 15.425C15.5583 15.5417 15.5583 15.65 15.5583 15.775V16.0583C15.5583 18.275 15 18.8333 12.775 18.8333H7.22498C4.99998 18.8333 4.44165 18.275 4.44165 16.0583V15.775C4.44165 15.65 4.44165 15.5417 4.44998 15.425C4.85832 15.4833 5.31665 15.5 5.83332 15.5H14.1667Z" stroke="#060922" stroke-width="1.5" stroke-linecap="round" stroke-linejoin="round"/>
<path d="M7.22498 2.16666H12.775C15 2.16666 15.5583 2.72499 15.5583 4.94166V5.22499C15.5583 5.34999 15.5583 5.45832 15.55 5.57499C15.1417 5.51666 14.6833 5.49999 14.1667 5.49999H5.83332C5.31665 5.49999 4.85832 5.51666 4.44998 5.57499C4.44165 5.45832 4.44165 5.34999 4.44165 5.22499V4.94166C4.44165 2.72499 4.99998 2.16666 7.22498 2.16666Z" stroke="#060922" stroke-width="1.5" stroke-linecap="round" stroke-linejoin="round"/>
</svg>
