<svg width="21" height="21" viewBox="0 0 21 21" fill="none" xmlns="http://www.w3.org/2000/svg">
<path d="M18.3673 9.44997L17.234 8.1333C17.0173 7.8833 16.8423 7.41663 16.8423 7.0833V5.66663C16.8423 4.7833 16.1173 4.0583 15.234 4.0583H13.8173C13.4923 4.0583 13.0173 3.8833 12.7673 3.66663L11.4506 2.5333C10.8756 2.04163 9.93397 2.04163 9.35064 2.5333L8.04231 3.67497C7.79231 3.8833 7.31731 4.0583 6.99231 4.0583H5.55064C4.66731 4.0583 3.94231 4.7833 3.94231 5.66663V7.09163C3.94231 7.41663 3.76731 7.8833 3.55897 8.1333L2.43397 9.4583C1.95064 10.0333 1.95064 10.9666 2.43397 11.5416L3.55897 12.8666C3.76731 13.1166 3.94231 13.5833 3.94231 13.9083V15.3333C3.94231 16.2166 4.66731 16.9416 5.55064 16.9416H6.99231C7.31731 16.9416 7.79231 17.1166 8.04231 17.3333L9.35897 18.4666C9.93397 18.9583 10.8756 18.9583 11.459 18.4666L12.7756 17.3333C13.0256 17.1166 13.4923 16.9416 13.8256 16.9416H15.2423C16.1256 16.9416 16.8506 16.2166 16.8506 15.3333V13.9166C16.8506 13.5916 17.0256 13.1166 17.2423 12.8666L18.3756 11.55C18.859 10.975 18.859 10.025 18.3673 9.44997ZM13.8673 8.92497L9.84231 12.95C9.72564 13.0666 9.56731 13.1333 9.40064 13.1333C9.23397 13.1333 9.07564 13.0666 8.95897 12.95L6.94231 10.9333C6.70064 10.6916 6.70064 10.2916 6.94231 10.05C7.18397 9.8083 7.58397 9.8083 7.82564 10.05L9.40064 11.625L12.984 8.04163C13.2256 7.79997 13.6256 7.79997 13.8673 8.04163C14.109 8.2833 14.109 8.6833 13.8673 8.92497Z" fill="#3F52FF"/>
</svg>
