<svg width="21" height="21" viewBox="0 0 21 21" fill="none" xmlns="http://www.w3.org/2000/svg">
<path d="M18.3671 9.45003L17.2338 8.13336C17.0171 7.88336 16.8421 7.4167 16.8421 7.08336V5.6667C16.8421 4.78336 16.1171 4.05836 15.2338 4.05836H13.8171C13.4921 4.05836 13.0171 3.88336 12.7671 3.6667L11.4505 2.53336C10.8755 2.0417 9.93379 2.0417 9.35046 2.53336L8.04212 3.67503C7.79212 3.88336 7.31712 4.05836 6.99212 4.05836H5.55046C4.66712 4.05836 3.94212 4.78336 3.94212 5.6667V7.0917C3.94212 7.4167 3.76712 7.88336 3.55879 8.13336L2.43379 9.45836C1.95046 10.0334 1.95046 10.9667 2.43379 11.5417L3.55879 12.8667C3.76712 13.1167 3.94212 13.5834 3.94212 13.9084V15.3334C3.94212 16.2167 4.66712 16.9417 5.55046 16.9417H6.99212C7.31712 16.9417 7.79212 17.1167 8.04212 17.3334L9.35879 18.4667C9.93379 18.9584 10.8755 18.9584 11.4588 18.4667L12.7755 17.3334C13.0255 17.1167 13.4921 16.9417 13.8255 16.9417H15.2421C16.1255 16.9417 16.8505 16.2167 16.8505 15.3334V13.9167C16.8505 13.5917 17.0255 13.1167 17.2421 12.8667L18.3755 11.55C18.8588 10.975 18.8588 10.025 18.3671 9.45003ZM13.8671 8.92503L9.84212 12.95C9.72546 13.0667 9.56712 13.1334 9.40046 13.1334C9.23379 13.1334 9.07546 13.0667 8.95879 12.95L6.94212 10.9334C6.70046 10.6917 6.70046 10.2917 6.94212 10.05C7.18379 9.80836 7.58379 9.80836 7.82546 10.05L9.40046 11.625L12.9838 8.0417C13.2255 7.80003 13.6255 7.80003 13.8671 8.0417C14.1088 8.28336 14.1088 8.68336 13.8671 8.92503Z" fill="#3F52FF"/>
</svg>
