<svg width="71" height="50" viewBox="0 0 71 50" fill="none" xmlns="http://www.w3.org/2000/svg">
<g clip-path="url(#clip0_0_857)">
<path d="M38.957 24.4494C43.3786 22.4439 44.0325 15.8994 37.7431 15.8994H30.4596L27.768 21.1772H29.0347L25.8151 33.7912H34.2597C40.4204 33.8439 43.1911 26.5895 38.957 24.4494ZM34.2597 29.1996H32.1485L32.9402 26.3496H34.9457C37.3207 26.8245 35.8431 29.305 34.2597 29.1996ZM35.5264 23.1299H33.732L34.2597 20.6494H36.2652C38.203 21.1244 36.5293 23.2356 35.5264 23.1299Z" fill="#005FAF" stroke="#005FAF" stroke-width="0.151336"/>
<path d="M56.247 22.6399L59.0121 17.7587L55.2706 15.8071L54.7825 16.4094C52.7642 15.341 42.195 16.8162 41.5332 27.2422C41.9288 35.9883 51.7292 34.415 52.6905 33.8601L55.3859 28.2881C52.746 30.0269 47.3406 30.8617 47.1119 25.6383C47.5861 21.331 52.6715 19.7225 56.247 22.6399ZM70.0449 15.8994H61.5445L58.8426 21.0193H60.2306L53.8246 33.7912H60.0252L61.2983 30.7106H65.1045L65.1994 33.7912H70.9073L70.0449 15.8994ZM63.0228 26.563L65.1044 21.5942L65.1993 26.563H63.0228Z" fill="#005FAF" stroke="#005FAF" stroke-width="0.151336"/>
<path d="M16.9615 32.9371L17.2917 32.8413L16.9296 32.3408L16.9615 32.9371ZM11.5403 32.8519L11.4765 33.2992C11.6408 33.2832 11.8432 33.4248 11.9238 33.1075C11.9178 32.8602 11.7295 32.8466 11.5403 32.8519ZM14.1712 32.8413C14.1438 32.7195 14.0421 32.6297 13.7877 32.7136L13.8729 33.1714C14.0819 33.125 14.1893 33.0014 14.1712 32.8413ZM8.22806 32.4666L8.12636 32.8734C8.2898 32.8802 8.48124 33.0128 8.58975 32.7717C8.59701 32.6206 8.60322 32.4702 8.22806 32.4666ZM13.9475 33.5123L14.0221 33.981C14.1966 33.9854 14.3558 33.8805 14.3096 33.6615C14.2651 33.4509 14.0882 33.4842 13.9475 33.5123Z" fill="#005FAF"/>
<path d="M20.8737 16.1406C15.2339 13.2675 8.49841 13.3474 3.12478 16.0153C0.353828 20.8933 0.265599 27.7184 3.12478 33.7634C9.04489 36.7592 15.5926 36.5619 20.9154 33.8887C23.4169 28.7564 23.8301 22.5807 20.8737 16.1406ZM11.3487 30.7064L11.0144 30.7102C10.9316 29.7864 10.7108 29.0101 10.2371 28.4159C8.06499 25.692 3.6248 27.7428 4.76572 23.1136C5.35895 20.747 12.1256 19.3512 11.3487 30.7064ZM4.77374 26.1342C5.24802 27.0996 8.2195 27.2578 9.25101 27.9967C10.8872 29.1688 10.6524 30.7106 10.6524 30.7106H10.2665C9.50676 28.382 7.37459 30.2258 5.66677 29.5986C4.59456 29.2173 3.81609 27.5642 4.77374 26.1342ZM10.1876 33.7254L10.3474 32.458L10.635 32.4793L10.5071 33.8745C10.3782 34.489 9.46182 34.4069 9.3462 33.8212L9.49526 32.3728L9.83607 32.4262L9.687 33.6402C9.70592 34.042 10.1089 34.0179 10.1876 33.7254ZM8.65747 34.0715L8.32967 33.9924C8.36811 33.7215 8.6894 33.1703 8.05439 33.1703L7.87763 33.8907L7.51594 33.8229L7.90018 32.0935C8.83937 32.1958 8.92155 32.4572 8.94016 32.7378C8.90309 32.9554 8.84512 33.1073 8.65762 33.1446C8.87706 33.3437 8.66019 33.7611 8.65747 34.0715ZM6.57554 32.1346C6.48519 32.2544 6.30435 32.6732 6.27817 33.0069C6.25032 33.3605 6.59007 33.2861 6.67467 33.2448C6.74292 33.2116 6.79362 32.9276 6.79362 32.9276L6.55572 32.8483L6.63502 32.6105L7.17044 32.7889L6.91272 33.6812L6.69464 33.6216L6.71447 33.4828C6.44751 33.6045 5.95885 33.5132 5.90149 33.2053C5.84414 32.9578 6.01787 32.2077 6.29799 31.8572C6.57024 31.5163 7.23355 31.8494 7.24974 32.0554C7.26578 32.2606 7.18482 32.4916 7.18482 32.4916L6.93512 32.4445C6.93512 32.4445 6.9504 32.3703 6.97219 32.2535C6.9952 32.1297 6.6724 32.0058 6.57554 32.1346ZM11.4445 33.5868L11.3806 34.3537L11.1144 34.3431L11.2102 32.5218C11.875 32.5356 12.2561 32.6276 12.2434 33.0971C12.2037 33.7384 11.6843 33.5942 11.4445 33.5868ZM12.1072 30.7105H11.6618C11.6223 29.1333 11.9256 26.2484 11.0968 24.1253C10.469 22.5158 8.87993 21.7918 8.52777 20.4917C7.97025 18.4338 8.91913 16.2072 12.1072 16.0358C14.871 16.3195 15.7202 18.4532 15.2487 20.4398C14.4382 22.4261 13.6275 22.1406 12.6182 24.1192C11.7939 26.2402 12.1078 29.0189 12.1072 30.7105ZM17.0466 33.6294L16.7377 33.736L16.6418 31.9041L17.0039 31.8083L17.8986 33.3206L17.6536 33.4804L17.3553 33.0545L17.0145 33.1823L17.0466 33.6294ZM13.4432 30.7105H13.0869C13.3805 26.6598 18.4707 27.5399 18.9359 26.1342C19.7404 27.5277 19.4512 28.7027 18.6111 29.305C16.5236 30.8023 14.5219 28.197 13.4432 30.7105ZM15.332 32.7562L15.4918 33.5977C15.5912 33.7915 15.6587 33.7557 15.8113 33.7361C15.9882 33.6081 15.9512 33.4834 15.9178 33.3207L16.2267 33.2782C16.3072 33.8878 16.0174 33.95 15.8007 33.9917C15.3359 34.025 15.2448 33.9345 15.119 33.3315C15.0458 32.8153 14.9193 32.2702 15.3533 32.1706C16.0658 32.0618 16.0237 32.3824 16.0882 32.6072L15.7793 32.6606C15.73 32.4675 15.659 32.3909 15.5024 32.4051C15.3597 32.4707 15.3011 32.5768 15.332 32.7562ZM14.6823 33.6294C14.6971 33.8947 14.6071 34.0709 14.4373 34.1301L13.713 34.2791L13.4255 32.5218C13.5741 32.4976 14.3027 32.2307 14.4798 32.7137C14.5671 33.0087 14.4766 33.1145 14.3733 33.2461C14.5692 33.3091 14.6354 33.4616 14.6823 33.6294ZM12.8224 24.8107C14.4359 20.2676 18.1281 21.0704 18.9469 23.1137C20.0688 27.2139 16.4564 26.0895 14.1425 27.7708C13.2679 28.5314 12.8077 29.404 12.8009 30.7268H12.4044C12.3806 28.0624 12.3375 26.1757 12.8224 24.8107Z" fill="#005FAF"/>
</g>
<defs>
<clipPath id="clip0_0_857">
<rect width="70" height="21.952" fill="white" transform="translate(1 14)"/>
</clipPath>
</defs>
</svg>
