<svg width="70" height="33" viewBox="0 0 70 33" fill="none" xmlns="http://www.w3.org/2000/svg">
<path fill-rule="evenodd" clip-rule="evenodd" d="M19.757 16.4974V16.4957C19.757 15.1265 19.8126 13.899 20.828 11.7422C21.1218 11.1146 21.7712 10.2009 20.8141 9.13429C20.036 8.35886 19.1537 8.48578 18.5582 8.82916C18.9007 8.23368 19.0276 7.34697 18.2504 6.56893C17.1847 5.61442 16.2675 6.26293 15.6425 6.55763C13.4848 7.5756 12.2635 7.63211 10.8882 7.63211C9.50946 7.63211 8.28547 7.5756 6.1313 6.55763C5.50452 6.26206 4.58305 5.61442 3.51987 6.56893C2.74357 7.34697 2.87397 8.23368 3.21648 8.82916C2.62013 8.48491 1.73516 8.35886 0.956255 9.13342C6.3777e-06 10.2009 0.652863 11.1155 0.941476 11.7422C1.96292 13.8981 2.01943 15.1265 2.01943 16.4974C2.01943 17.8727 1.96292 19.1036 0.941476 21.2578C0.652863 21.8811 6.3777e-06 22.8008 0.956255 23.8666C1.73516 24.6403 2.62013 24.5116 3.21648 24.1726C2.87397 24.7698 2.74357 25.6539 3.52074 26.4241C4.58305 27.3856 5.50452 26.7371 6.1313 26.4415C8.2872 25.4244 9.50946 25.3696 10.8891 25.3696C12.2626 25.3696 13.4848 25.4235 15.6434 26.4415C16.2684 26.7371 17.1855 27.3856 18.2513 26.4241C19.0285 25.6539 18.8981 24.7698 18.5573 24.1726C19.1537 24.5116 20.0369 24.6446 20.8149 23.8666C21.772 22.8008 21.1227 21.8811 20.8288 21.2587C19.8126 19.1001 19.757 17.8727 19.757 16.4974Z" fill="#FF3E3E"/>
<path fill-rule="evenodd" clip-rule="evenodd" d="M17.3324 22.9669L12.3252 18.7681C12.3252 18.7681 11.6471 18.1056 10.8865 18.1056C10.118 18.1056 9.43992 18.7681 9.43992 18.7681L4.43352 22.9669L4.41788 22.9521L8.61755 17.9448C8.61755 17.9448 9.27823 17.2694 9.27823 16.4992C9.27823 15.7368 8.61755 15.0604 8.61755 15.0604L4.41788 10.0488L4.43352 10.0314L9.43992 14.2354C9.43992 14.2354 10.118 14.8987 10.8865 14.8987C11.6471 14.8987 12.3252 14.2354 12.3252 14.2354L17.3324 10.0314L17.3533 10.054L13.1458 15.0604C13.1458 15.0604 12.4886 15.7368 12.4886 16.4992C12.4886 17.2694 13.1449 17.9448 13.1449 17.9448L17.3533 22.9512L17.3324 22.9669Z" fill="white"/>
<path fill-rule="evenodd" clip-rule="evenodd" d="M35.4038 23.8857C36.9946 23.318 38.9636 20.6119 38.6377 16.3513C38.3221 12.229 36.746 8.98997 32.5481 8.68658C32.5481 8.68658 31.7527 8.6292 31.0868 8.62572C30.3722 8.62138 30.2192 8.59704 30.1662 9.35769C30.0749 10.7816 30.0488 21.8672 30.1401 23.4676C30.1505 23.6866 30.1749 24.2134 31.0911 24.3056C32.7663 24.4673 34.1511 24.3378 35.4038 23.8857ZM33.7799 7.98417C37.3319 7.96765 42.0063 10.3957 41.988 16.46C41.9758 21.7359 38.1543 24.9845 34.6249 24.9845L25.664 24.9871L25.6753 24.7985C26.1795 24.709 26.7454 24.396 26.8402 24.0613C27.1357 22.7904 27.0688 11.1607 26.8897 9.24555C26.8323 8.64659 26.3586 8.26061 25.7831 8.16586L25.7657 7.9833C25.7657 7.9833 32.9836 7.98938 33.7799 7.98417ZM53.4282 20.8179C53.4995 17.1642 50.8124 16.1949 48.0298 16.0436C47.9724 16.0393 47.995 15.9019 48.0376 15.8958C48.9417 15.8593 52.5354 15.4438 52.3894 12.0213C52.2442 8.68658 49.7058 8.61095 48.7782 8.59704C48.0202 8.58747 47.8559 8.58747 47.5351 8.60312C46.9961 8.62659 46.8623 8.66571 46.8657 9.24902C46.8657 9.32292 46.7466 15.2569 46.6762 19.4287C46.6564 20.7668 46.6422 22.105 46.6336 23.4432C46.6467 23.8588 46.5954 24.2795 47.622 24.3282C48.6817 24.3795 50.0474 24.4238 51.0037 24.2204C51.88 24.0344 53.3674 23.3945 53.4282 20.8179ZM52.3285 15.9063C56.5082 16.9381 56.7603 19.9451 56.7012 20.7909C56.5099 24.5551 53.3082 24.9871 52.0182 24.9871H42.1601L42.1706 24.7976C42.8869 24.6994 43.425 24.3082 43.425 23.0538L43.4824 10.087C43.4989 8.68136 43.1277 8.25105 42.347 8.15977L42.3296 7.98417H49.784C51.1523 7.98417 55.2729 7.71294 55.6241 11.4893C55.9032 14.511 52.5728 15.7741 52.3294 15.9054L52.3285 15.9063ZM68.4039 8.03546L68.5734 8.03372L68.6308 11.0642L68.4448 11.0624C68.1457 9.82799 66.9565 8.66571 64.5711 8.54401C61.7545 8.39622 60.5375 10.0697 60.5184 11.6536C60.5018 13.7582 62.1492 14.1928 64.5894 14.7866C65.7395 15.0665 70 15.6211 69.6584 20.3928C69.4219 23.7258 66.5349 25.3105 62.4474 25.1853C62.4474 25.1853 60.7487 25.1288 58.3772 24.4725C57.9382 24.3491 57.8209 24.4968 57.6444 24.8194L57.4505 24.8289L57.4575 21.562L57.6444 21.5707C57.7383 21.9019 57.7644 22.5183 58.3659 23.0399C58.8041 23.4258 59.8351 24.3769 62.0936 24.4021C64.3103 24.4316 66.1489 23.498 66.3949 21.0187C66.4619 20.3519 66.3915 18.8254 64.8962 18.1291C63.727 17.5849 60.4801 17.225 58.9058 15.8497C58.9058 15.8497 57.0385 14.5536 57.3332 12.1334C57.747 8.71353 60.6105 7.85812 63.1837 7.80596C63.1837 7.80596 65.4848 7.78336 67.3182 8.2554C67.3182 8.2554 67.7667 8.3771 68.1388 8.23627C68.2892 8.18585 68.3605 8.09196 68.4039 8.03546Z" fill="#060922"/>
</svg>
