<svg width="126" height="41" viewBox="0 0 126 41" fill="none" xmlns="http://www.w3.org/2000/svg">
<g clip-path="url(#clip0_8_909)">
<path fill-rule="evenodd" clip-rule="evenodd" d="M13.7146 0.516113C11.4582 0.516113 9.2943 1.41245 7.69881 3.00794L0 10.7067V14.2307C0 16.7204 1.06944 18.9603 2.77401 20.5161C1.06944 22.0719 0 24.3118 0 26.8015V30.3255L7.69881 38.0243C9.2943 39.6198 11.4582 40.5161 13.7146 40.5161C16.2043 40.5161 18.4442 39.4467 20 37.7421C21.5558 39.4467 23.7957 40.5161 26.2854 40.5161C28.5418 40.5161 30.7057 39.6198 32.3012 38.0243L40 30.3255V26.8015C40 24.3118 38.9306 22.0719 37.226 20.5161C38.9306 18.9603 40 16.7204 40 14.2307V10.7067L32.3012 3.00794C30.7057 1.41245 28.5418 0.516113 26.2854 0.516113C23.7957 0.516113 21.5558 1.58555 20 3.29012C18.4442 1.58555 16.2043 0.516113 13.7146 0.516113ZM25.7588 20.5161C25.6629 20.4286 25.5688 20.3387 25.4766 20.2465L20 14.7699L14.5234 20.2465C14.4312 20.3387 14.3371 20.4286 14.2412 20.5161C14.3371 20.6036 14.4312 20.6935 14.5234 20.7857L20 26.2623L25.4766 20.7857C25.5688 20.6935 25.6629 20.6036 25.7588 20.5161ZM22.2222 30.3255V32.0085C22.2222 34.2525 24.0414 36.0717 26.2854 36.0717C27.363 36.0717 28.3965 35.6436 29.1585 34.8816L35.5556 28.4845V26.8015C35.5556 24.5575 33.7364 22.7383 31.4924 22.7383C30.4148 22.7383 29.3813 23.1664 28.6193 23.9284L22.2222 30.3255ZM17.7778 30.3255L11.3807 23.9284C10.6187 23.1664 9.58524 22.7383 8.50762 22.7383C6.26359 22.7383 4.44444 24.5575 4.44444 26.8015V28.4845L10.8415 34.8816C11.6035 35.6436 12.637 36.0717 13.7146 36.0717C15.9586 36.0717 17.7778 34.2525 17.7778 32.0085V30.3255ZM17.7778 9.02373V10.7067L11.3807 17.1038C10.6187 17.8658 9.58524 18.2939 8.50762 18.2939C6.26359 18.2939 4.44444 16.4747 4.44444 14.2307V12.5477L10.8415 6.15063C11.6035 5.38864 12.637 4.96056 13.7146 4.96056C15.9586 4.96056 17.7778 6.7797 17.7778 9.02373ZM28.6193 17.1038L22.2222 10.7067V9.02373C22.2222 6.7797 24.0414 4.96056 26.2854 4.96056C27.363 4.96056 28.3965 5.38864 29.1585 6.15063L35.5556 12.5477V14.2307C35.5556 16.4747 33.7364 18.2939 31.4924 18.2939C30.4148 18.2939 29.3813 17.8658 28.6193 17.1038Z" fill="#3F52FF"/>
</g>
<path d="M65.262 11.67V15.726H60.374V30H55.278V15.726H50.442V11.67H65.262ZM81.0834 22.538C81.0834 22.9367 81.0574 23.3353 81.0054 23.734H71.3594C71.4114 24.5313 71.6281 25.1293 72.0094 25.528C72.4081 25.9093 72.9107 26.1 73.5174 26.1C74.3667 26.1 74.9734 25.7187 75.3374 24.956H80.7714C80.5461 25.9613 80.1041 26.8627 79.4454 27.66C78.8041 28.44 77.9894 29.0553 77.0014 29.506C76.0134 29.9567 74.9214 30.182 73.7254 30.182C72.2867 30.182 71.0041 29.8787 69.8774 29.272C68.7681 28.6653 67.8927 27.7987 67.2514 26.672C66.6274 25.5453 66.3154 24.2193 66.3154 22.694C66.3154 21.1687 66.6274 19.8513 67.2514 18.742C67.8754 17.6153 68.7421 16.7487 69.8514 16.142C70.9781 15.5353 72.2694 15.232 73.7254 15.232C75.1641 15.232 76.4381 15.5267 77.5474 16.116C78.6567 16.7053 79.5234 17.5547 80.1474 18.664C80.7714 19.756 81.0834 21.0473 81.0834 22.538ZM75.8834 21.264C75.8834 20.64 75.6754 20.1547 75.2594 19.808C74.8434 19.444 74.3234 19.262 73.6994 19.262C73.0754 19.262 72.5641 19.4353 72.1654 19.782C71.7667 20.1113 71.5067 20.6053 71.3854 21.264H75.8834ZM82.3369 22.694C82.3369 21.186 82.6056 19.8687 83.1429 18.742C83.6976 17.6153 84.4516 16.7487 85.4049 16.142C86.3582 15.5353 87.4156 15.232 88.5769 15.232C89.5129 15.232 90.3449 15.4313 91.0729 15.83C91.8182 16.2113 92.3989 16.74 92.8149 17.416V10.76H97.9369V30H92.8149V27.972C92.4162 28.648 91.8529 29.1853 91.1249 29.584C90.3969 29.9827 89.5389 30.182 88.5509 30.182C87.3896 30.182 86.3322 29.8787 85.3789 29.272C84.4429 28.6653 83.6976 27.7987 83.1429 26.672C82.6056 25.528 82.3369 24.202 82.3369 22.694ZM92.8409 22.694C92.8409 21.758 92.5809 21.0213 92.0609 20.484C91.5582 19.9467 90.9342 19.678 90.1889 19.678C89.4262 19.678 88.7936 19.9467 88.2909 20.484C87.7882 21.004 87.5369 21.7407 87.5369 22.694C87.5369 23.63 87.7882 24.3753 88.2909 24.93C88.7936 25.4673 89.4262 25.736 90.1889 25.736C90.9342 25.736 91.5582 25.4673 92.0609 24.93C92.5809 24.3927 92.8409 23.6473 92.8409 22.694ZM103.389 14.062C102.487 14.062 101.759 13.8193 101.205 13.334C100.667 12.8313 100.399 12.2073 100.399 11.462C100.399 10.6993 100.667 10.0667 101.205 9.564C101.759 9.06133 102.487 8.81 103.389 8.81C104.273 8.81 104.983 9.06133 105.521 9.564C106.075 10.0667 106.353 10.6993 106.353 11.462C106.353 12.2073 106.075 12.8313 105.521 13.334C104.983 13.8193 104.273 14.062 103.389 14.062ZM105.937 31.43C105.937 35.122 104.082 36.968 100.373 36.968H98.5268V32.626H99.6188C100.052 32.626 100.364 32.5393 100.555 32.366C100.745 32.1927 100.841 31.9067 100.841 31.508V15.414H105.937V31.43ZM107.981 22.694C107.981 21.186 108.25 19.8687 108.787 18.742C109.342 17.6153 110.087 16.7487 111.023 16.142C111.977 15.5353 113.034 15.232 114.195 15.232C115.201 15.232 116.067 15.4313 116.795 15.83C117.523 16.2287 118.087 16.766 118.485 17.442V15.414H123.581V30H118.485V27.972C118.087 28.648 117.515 29.1853 116.769 29.584C116.041 29.9827 115.183 30.182 114.195 30.182C113.034 30.182 111.977 29.8787 111.023 29.272C110.087 28.6653 109.342 27.7987 108.787 26.672C108.25 25.528 107.981 24.202 107.981 22.694ZM118.485 22.694C118.485 21.758 118.225 21.0213 117.705 20.484C117.203 19.9467 116.579 19.678 115.833 19.678C115.071 19.678 114.438 19.9467 113.935 20.484C113.433 21.004 113.181 21.7407 113.181 22.694C113.181 23.63 113.433 24.3753 113.935 24.93C114.438 25.4673 115.071 25.736 115.833 25.736C116.579 25.736 117.203 25.4673 117.705 24.93C118.225 24.3927 118.485 23.6473 118.485 22.694Z" fill="white"/>
<defs>
<clipPath id="clip0_8_909">
<rect width="40" height="41" fill="white"/>
</clipPath>
</defs>
</svg>
