<svg width="126" height="42" viewBox="0 0 126 42" fill="none" xmlns="http://www.w3.org/2000/svg">
<g clip-path="url(#clip0_0_209)">
<path fill-rule="evenodd" clip-rule="evenodd" d="M13.7146 1.01611C11.4582 1.01611 9.2943 1.91245 7.69881 3.50794L0 11.2067V14.7307C0 17.2204 1.06944 19.4603 2.77401 21.0161C1.06944 22.5719 0 24.8118 0 27.3015V30.8255L7.69881 38.5243C9.2943 40.1198 11.4582 41.0161 13.7146 41.0161C16.2043 41.0161 18.4442 39.9467 20 38.2421C21.5558 39.9467 23.7957 41.0161 26.2854 41.0161C28.5418 41.0161 30.7057 40.1198 32.3012 38.5243L40 30.8255V27.3015C40 24.8118 38.9306 22.5719 37.226 21.0161C38.9306 19.4603 40 17.2204 40 14.7307V11.2067L32.3012 3.50794C30.7057 1.91245 28.5418 1.01611 26.2854 1.01611C23.7957 1.01611 21.5558 2.08555 20 3.79012C18.4442 2.08555 16.2043 1.01611 13.7146 1.01611ZM25.7588 21.0161C25.6629 20.9286 25.5688 20.8387 25.4766 20.7465L20 15.2699L14.5234 20.7465C14.4312 20.8387 14.3371 20.9286 14.2412 21.0161C14.3371 21.1036 14.4312 21.1935 14.5234 21.2857L20 26.7623L25.4766 21.2857C25.5688 21.1935 25.6629 21.1036 25.7588 21.0161ZM22.2222 30.8255V32.5085C22.2222 34.7525 24.0414 36.5717 26.2854 36.5717C27.363 36.5717 28.3965 36.1436 29.1585 35.3816L35.5556 28.9845V27.3015C35.5556 25.0575 33.7364 23.2383 31.4924 23.2383C30.4148 23.2383 29.3813 23.6664 28.6193 24.4284L22.2222 30.8255ZM17.7778 30.8255L11.3807 24.4284C10.6187 23.6664 9.58524 23.2383 8.50762 23.2383C6.26359 23.2383 4.44444 25.0575 4.44444 27.3015V28.9845L10.8415 35.3816C11.6035 36.1436 12.637 36.5717 13.7146 36.5717C15.9586 36.5717 17.7778 34.7525 17.7778 32.5085V30.8255ZM17.7778 9.52373V11.2067L11.3807 17.6038C10.6187 18.3658 9.58524 18.7939 8.50762 18.7939C6.26359 18.7939 4.44444 16.9747 4.44444 14.7307V13.0477L10.8415 6.65063C11.6035 5.88864 12.637 5.46056 13.7146 5.46056C15.9586 5.46056 17.7778 7.2797 17.7778 9.52373ZM28.6193 17.6038L22.2222 11.2067V9.52373C22.2222 7.2797 24.0414 5.46056 26.2854 5.46056C27.363 5.46056 28.3965 5.88864 29.1585 6.65063L35.5556 13.0477V14.7307C35.5556 16.9747 33.7364 18.7939 31.4924 18.7939C30.4148 18.7939 29.3813 18.3658 28.6193 17.6038Z" fill="#3F52FF"/>
</g>
<path d="M65.262 12.17V16.226H60.374V30.5H55.278V16.226H50.442V12.17H65.262ZM81.0834 23.038C81.0834 23.4367 81.0574 23.8353 81.0054 24.234H71.3594C71.4114 25.0313 71.6281 25.6293 72.0094 26.028C72.4081 26.4093 72.9107 26.6 73.5174 26.6C74.3667 26.6 74.9734 26.2187 75.3374 25.456H80.7714C80.5461 26.4613 80.1041 27.3627 79.4454 28.16C78.8041 28.94 77.9894 29.5553 77.0014 30.006C76.0134 30.4567 74.9214 30.682 73.7254 30.682C72.2867 30.682 71.0041 30.3787 69.8774 29.772C68.7681 29.1653 67.8927 28.2987 67.2514 27.172C66.6274 26.0453 66.3154 24.7193 66.3154 23.194C66.3154 21.6687 66.6274 20.3513 67.2514 19.242C67.8754 18.1153 68.7421 17.2487 69.8514 16.642C70.9781 16.0353 72.2694 15.732 73.7254 15.732C75.1641 15.732 76.4381 16.0267 77.5474 16.616C78.6567 17.2053 79.5234 18.0547 80.1474 19.164C80.7714 20.256 81.0834 21.5473 81.0834 23.038ZM75.8834 21.764C75.8834 21.14 75.6754 20.6547 75.2594 20.308C74.8434 19.944 74.3234 19.762 73.6994 19.762C73.0754 19.762 72.5641 19.9353 72.1654 20.282C71.7667 20.6113 71.5067 21.1053 71.3854 21.764H75.8834ZM82.3369 23.194C82.3369 21.686 82.6056 20.3687 83.1429 19.242C83.6976 18.1153 84.4516 17.2487 85.4049 16.642C86.3582 16.0353 87.4156 15.732 88.5769 15.732C89.5129 15.732 90.3449 15.9313 91.0729 16.33C91.8182 16.7113 92.3989 17.24 92.8149 17.916V11.26H97.9369V30.5H92.8149V28.472C92.4162 29.148 91.8529 29.6853 91.1249 30.084C90.3969 30.4827 89.5389 30.682 88.5509 30.682C87.3896 30.682 86.3322 30.3787 85.3789 29.772C84.4429 29.1653 83.6976 28.2987 83.1429 27.172C82.6056 26.028 82.3369 24.702 82.3369 23.194ZM92.8409 23.194C92.8409 22.258 92.5809 21.5213 92.0609 20.984C91.5582 20.4467 90.9342 20.178 90.1889 20.178C89.4262 20.178 88.7936 20.4467 88.2909 20.984C87.7882 21.504 87.5369 22.2407 87.5369 23.194C87.5369 24.13 87.7882 24.8753 88.2909 25.43C88.7936 25.9673 89.4262 26.236 90.1889 26.236C90.9342 26.236 91.5582 25.9673 92.0609 25.43C92.5809 24.8927 92.8409 24.1473 92.8409 23.194ZM103.389 14.562C102.487 14.562 101.759 14.3193 101.205 13.834C100.667 13.3313 100.399 12.7073 100.399 11.962C100.399 11.1993 100.667 10.5667 101.205 10.064C101.759 9.56133 102.487 9.31 103.389 9.31C104.273 9.31 104.983 9.56133 105.521 10.064C106.075 10.5667 106.353 11.1993 106.353 11.962C106.353 12.7073 106.075 13.3313 105.521 13.834C104.983 14.3193 104.273 14.562 103.389 14.562ZM105.937 31.93C105.937 35.622 104.082 37.468 100.373 37.468H98.5268V33.126H99.6188C100.052 33.126 100.364 33.0393 100.555 32.866C100.745 32.6927 100.841 32.4067 100.841 32.008V15.914H105.937V31.93ZM107.981 23.194C107.981 21.686 108.25 20.3687 108.787 19.242C109.342 18.1153 110.087 17.2487 111.023 16.642C111.977 16.0353 113.034 15.732 114.195 15.732C115.201 15.732 116.067 15.9313 116.795 16.33C117.523 16.7287 118.087 17.266 118.485 17.942V15.914H123.581V30.5H118.485V28.472C118.087 29.148 117.515 29.6853 116.769 30.084C116.041 30.4827 115.183 30.682 114.195 30.682C113.034 30.682 111.977 30.3787 111.023 29.772C110.087 29.1653 109.342 28.2987 108.787 27.172C108.25 26.028 107.981 24.702 107.981 23.194ZM118.485 23.194C118.485 22.258 118.225 21.5213 117.705 20.984C117.203 20.4467 116.579 20.178 115.833 20.178C115.071 20.178 114.438 20.4467 113.935 20.984C113.433 21.504 113.181 22.2407 113.181 23.194C113.181 24.13 113.433 24.8753 113.935 25.43C114.438 25.9673 115.071 26.236 115.833 26.236C116.579 26.236 117.203 25.9673 117.705 25.43C118.225 24.8927 118.485 24.1473 118.485 23.194Z" fill="#060922"/>
<defs>
<clipPath id="clip0_0_209">
<rect width="40" height="41" fill="white" transform="translate(0 0.5)"/>
</clipPath>
</defs>
</svg>
